# xmcd
#
# Track frame offsets: 
#        150
#        14323
#        29027
#        41087
#        52731
#        65166
#        77963
#        97224
#        110773
#        121544
#        141914
#        150789
#        164852
#        180356
#        195324
#
# Disc length: 2781 seconds
#
# Revision: 2
# Processed by: cddbd v1.5.2PL0 Copyright (c) Steve Scherf et al.
# Submitted via: ExactAudioCopy v0.99pb5
#
DISCID=c90adb0f
DTITLE=Various Artist - Classic Country - TL 626-39 - Queens Of Country - CD 
DTITLE=2
DYEAR=2004
DGENRE=Country
TTITLE0=Dolly Parton - I will always love you
TTITLE1=Jeannie C. Riley - Harper Valley P.T.A.
TTITLE2=Marie Osmond - Paper roses
TTITLE3=Stella Parton - The danger of a stranger
TTITLE4=Skeeter Davis - Fuel to the flame
TTITLE5=Kitty Wells - This white circle on my finger
TTITLE6=Bobbie Gentry - Fancy
TTITLE7=Dottie West - Paper mansions
TTITLE8=Jessi Colter - I'ts morning (and I still love you)
TTITLE9=Rosanne Cash - Blue moon with heartache
TTITLE10=Gail Davies - Blue heartache
TTITLE11=Barbara Mandrell - Standing room only
TTITLE12=Barbara Fairchild - Baby doll
TTITLE13=Cristy Lane - One day at a time
TTITLE14=Lynn Anderson - Rose garden
EXTD=
EXTT0=
EXTT1=
EXTT2=
EXTT3=
EXTT4=
EXTT5=
EXTT6=
EXTT7=
EXTT8=
EXTT9=
EXTT10=
EXTT11=
EXTT12=
EXTT13=
EXTT14=
PLAYORDER=
